Coordinates
version=1
nRows=7
nColumns=40
inDegrees=yes

Units are S.I. units (second, meters, Newtons, ...)
If the header above contains a line with 'inDegrees', this indicates whether rotational values are in degrees (yes) or radians (no).

endheader
time	pelvis_tilt	pelvis_list	pelvis_rotation	pelvis_tx	pelvis_ty	pelvis_tz	hip_flexion_r	hip_adduction_r	hip_rotation_r	knee_angle_r	knee_angle_r_beta	ankle_angle_r	subtalar_angle_r	mtp_angle_r	hip_flexion_l	hip_adduction_l	hip_rotation_l	knee_angle_l	knee_angle_l_beta	ankle_angle_l	subtalar_angle_l	mtp_angle_l	lumbar_extension	lumbar_bending	lumbar_rotation	arm_flex_r	arm_add_r	arm_rot_r	elbow_flex_r	pro_sup_r	wrist_flex_r	wrist_dev_r	arm_flex_l	arm_add_l	arm_rot_l	elbow_flex_l	pro_sup_l	wrist_flex_l	wrist_dev_l
      2.72500000	    -12.56737359	      4.70555223	     -0.51105232	     -0.29735308	      0.92161709	     -0.99104027	     16.29800565	     -4.81864931	     -0.23678649	     81.28935338	      1.41876686	     -2.18652015	      0.00000000	      0.00000000	     44.03622961	      5.97658165	     -4.15765048	     58.32740226	      1.01800521	     20.61222011	      0.00000000	      0.00000000	     -0.51161077	     -5.24742370	     -4.04563127	     89.93804203	     -0.16178504	     40.06605012	     47.96128002	     79.22300126	      0.00000000	      0.00000000	     89.94341307	    -22.54679497	     43.65956427	     58.11151900	     82.74791284	      0.00000000	      0.00000000
      2.73000000	    -12.50421838	      4.82673951	     -0.54363879	     -0.29731784	      0.92125000	     -0.99123226	     16.22226966	     -4.95992494	     -0.35639841	     81.28911093	      1.41876263	     -2.29450392	      0.00000000	      0.00000000	     43.98858060	      6.06109354	     -4.29997222	     58.35386504	      1.01846708	     20.73008433	      0.00000000	      0.00000000	     -0.62018067	     -5.31162675	     -4.13509044	     89.93850973	     -0.16458708	     40.09303175	     48.12736026	     83.74446233	      0.00000000	      0.00000000	     89.94284764	    -22.75435252	     43.12416797	     58.28467980	     87.01313587	      0.00000000	      0.00000000
      2.73500000	    -12.54386115	      4.81689412	     -0.54902259	     -0.29735011	      0.92077704	     -0.99143596	     16.24335277	     -4.89497649	     -0.43612357	     81.27468228	      1.41851080	     -2.26173888	      0.00000000	      0.00000000	     44.08862890	      6.06014124	     -4.31370927	     58.46835188	      1.02046525	     20.76369134	      0.00000000	      0.00000000	     -0.60237369	     -5.26088348	     -4.11105797	     89.93872479	     -0.22918575	     40.11908258	     48.20890038	     82.20570008	      0.00000000	      0.00000000	     89.94280163	    -22.70378669	     43.14505462	     58.28523058	     87.17421849	      0.00000000	      0.00000000
      2.74000000	    -12.65382801	      4.89429618	     -0.59405885	     -0.29749952	      0.92020857	     -0.99166125	     16.38649566	     -4.93208311	     -0.44359253	     81.30303504	      1.41900565	     -2.33491392	      0.00000000	      0.00000000	     44.27672706	      6.11677680	     -4.37023674	     58.58404004	      1.02248439	     20.83712875	      0.00000000	      0.00000000	     -0.52719550	     -5.29819631	     -4.16218006	     89.93906828	     -0.12652907	     39.92426172	     48.15451758	     83.55665060	      0.00000000	      0.00000000	     89.94246616	    -22.88459048	     43.12871396	     58.48568584	     87.03466388	      0.00000000	      0.00000000
      2.74500000	    -12.56830827	      4.96048337	     -0.58349341	     -0.29760703	      0.91988515	     -0.99187117	     16.28521770	     -4.99372652	     -0.56963844	     81.33595333	      1.41958019	     -2.28509097	      0.00000000	      0.00000000	     44.24286224	      6.20261094	     -4.40522899	     58.67371857	      1.02404957	     20.90051690	      0.00000000	      0.00000000	     -0.65851054	     -5.32963166	     -4.18974838	     89.93926858	     -0.12042164	     39.86713765	     48.20657056	     82.58890541	      0.00000000	      0.00000000	     89.94269642	    -22.85764265	     43.05236304	     58.47632445	     87.12014351	      0.00000000	      0.00000000
      2.75000000	    -12.53998849	      5.02820612	     -0.59498723	     -0.29760635	      0.91948789	     -0.99209662	     16.21609120	     -5.03282123	     -0.59461443	     81.24946855	      1.41807074	     -2.62046228	      0.00000000	      0.00000000	     44.26149398	      6.28172260	     -4.43183784	     58.75970334	      1.02555029	     20.93333094	      0.00000000	      0.00000000	     -0.70200137	     -5.36204811	     -4.19220046	     89.93954542	     -0.10776072	     39.85483408	     48.24329485	     81.32870633	      0.00000000	      0.00000000	     89.94246849	    -22.86324630	     42.95284771	     58.45773148	     87.22488327	      0.00000000	      0.00000000
      2.75500000	    -12.61904707	      5.09443972	     -0.64241360	     -0.29757705	      0.91886265	     -0.99237583	     16.30555360	     -5.06642265	     -0.60760415	     81.29181362	      1.41880980	     -2.66837911	      0.00000000	      0.00000000	     44.39503043	      6.32255662	     -4.51841587	     58.85353068	      1.02718789	     21.04114523	      0.00000000	      0.00000000	     -0.61312336	     -5.39738322	     -4.15842685	     89.93969924	     -0.15779706	     39.70317747	     48.25868480	     84.16760720	      0.00000000	      0.00000000	     89.94246956	    -22.87574377	     43.01947255	     58.49334023	     86.92891882	      0.00000000	      0.00000000
